<svg width="35" height="35" viewBox="0 0 35 35" fill="none" xmlns="http://www.w3.org/2000/svg">
<path fill-rule="evenodd" clip-rule="evenodd" d="M20.4167 7.71454V4.71038C26.2646 6.03746 30.625 11.2583 30.625 17.5C30.625 23.7416 26.2646 28.9625 20.4167 30.2895V27.2854C24.6313 26.0312 27.7083 22.1229 27.7083 17.5C27.7083 12.877 24.6313 8.96871 20.4167 7.71454ZM4.37502 13.125V21.875H10.2083L17.5 29.1666V5.83329L10.2083 13.125H4.37502ZM24.0625 17.5C24.0622 16.2781 23.7208 15.0805 23.0766 14.0422C22.4325 13.0038 21.5113 12.1659 20.4167 11.6229V23.3625C22.575 22.2979 24.0625 20.0812 24.0625 17.5Z" fill="#F5F5F5"/>
</svg>
