<svg width="35" height="35" viewBox="0 0 35 35" fill="none" xmlns="http://www.w3.org/2000/svg">
<path d="M13.125 30.625C13.125 31.4271 13.7813 32.0833 14.5833 32.0833H20.4167C21.2188 32.0833 21.875 31.4271 21.875 30.625V29.1667H13.125V30.625ZM17.5 2.91667C11.8708 2.91667 7.29168 7.49583 7.29168 13.125C7.29168 16.5958 9.0271 19.6437 11.6667 21.4958V24.7917C11.6667 25.5937 12.3229 26.25 13.125 26.25H21.875C22.6771 26.25 23.3333 25.5937 23.3333 24.7917V21.4958C25.9729 19.6437 27.7083 16.5958 27.7083 13.125C27.7083 7.49583 23.1292 2.91667 17.5 2.91667ZM21.6563 19.1042L20.4167 19.9792V23.3333H14.5833V19.9792L13.3438 19.1042C12.3776 18.4344 11.5878 17.5407 11.0419 16.4996C10.4959 15.4584 10.2099 14.3006 10.2083 13.125C10.2083 9.1 13.475 5.83333 17.5 5.83333C21.525 5.83333 24.7917 9.1 24.7917 13.125C24.7917 15.5021 23.625 17.7333 21.6563 19.1042Z" fill="#F5F5F5"/>
</svg>
