<svg width="116" height="35" viewBox="0 0 116 35" fill="none" xmlns="http://www.w3.org/2000/svg">
<path d="M3.17789 3.18076H0.0973994V25.3067H3.17789V14.8529H16.3994V25.3067H19.4799V3.18076H16.3994V11.9583H3.17789V3.18076Z" fill="#06286E"/>
<path d="M20.0471 8.91018L27.3454 25.3065C26.6871 27.6231 25.82 28.3846 23.7255 28.3846C23.3068 28.3846 22.7683 28.324 22.0209 28.202V31.0058C22.9178 31.0967 23.576 31.1279 24.0244 31.1279C28.0027 31.1279 28.6609 29.6342 30.605 25.1844L37.7241 8.91018H34.3447L28.9905 22.7164L23.5166 8.91018H20.0471Z" fill="#06286E"/>
<path d="M51.7518 8.91051V11.5923C50.466 9.58119 48.312 8.39214 45.4999 8.39214C40.4456 8.39214 36.9158 12.0189 36.9158 17.1394C36.9158 22.2286 40.415 25.7637 45.5305 25.7637C48.1022 25.7637 50.077 24.8196 51.7518 22.8993V23.448C51.7518 27.0133 50.1067 28.4455 45.7097 28.4455C43.0479 28.4455 41.5523 27.6234 41.2533 25.8554H37.9927C38.3214 29.2685 40.9841 31.1888 45.68 31.1888C51.9607 31.1888 54.6531 28.7198 54.6531 23.2039V8.91051H51.7518ZM45.9492 11.1354C49.6582 11.1354 51.9607 13.3906 51.9607 17.1394C51.9607 20.8267 49.6582 23.0213 45.9492 23.0213C42.2402 23.0213 39.9665 20.857 39.9665 17.1394C39.9665 13.3906 42.2402 11.1354 45.9492 11.1354Z" fill="#06286E"/>
<path d="M70.8937 8.91051V11.5923C69.6079 9.58119 67.454 8.39214 64.6418 8.39214C59.5875 8.39214 56.0577 12.0189 56.0577 17.1394C56.0577 22.2286 59.5569 25.7637 64.6724 25.7637C67.2441 25.7637 69.2189 24.8196 70.8937 22.8993V23.448C70.8937 27.0133 69.2486 28.4455 64.8516 28.4455C62.1898 28.4455 60.6942 27.6234 60.3952 25.8554H57.1346C57.4633 29.2685 60.126 31.1888 64.8219 31.1888C71.1026 31.1888 73.795 28.7198 73.795 23.2039V8.91051H70.8937ZM65.0911 11.1354C68.8001 11.1354 71.1026 13.3906 71.1026 17.1394C71.1026 20.8267 68.8001 23.0213 65.0911 23.0213C61.3821 23.0213 59.1084 20.857 59.1084 17.1394C59.1084 13.3906 61.3821 11.1354 65.0911 11.1354Z" fill="#06286E"/>
<path d="M92.7877 17.7183V17.1394C92.7877 11.6841 89.5271 8.39214 84.0235 8.39214C78.6396 8.39214 75.1998 11.8364 75.1998 17.1394C75.1998 22.4112 78.6099 25.7637 84.0235 25.7637C88.3007 25.7637 91.3821 23.7526 92.5185 20.2175H89.1381C88.4808 22.0158 86.5664 23.0213 84.0235 23.0213C80.5837 23.0213 78.2803 20.9185 78.2803 17.7183H92.7877ZM78.3406 15.6155C78.8188 12.8116 80.943 11.1354 84.0235 11.1354C87.1346 11.1354 89.2282 12.8419 89.6766 15.6155H78.3406Z" fill="#06286E"/>
<path d="M92.1611 3.18076L100.686 14.0914L91.7424 25.3067H98.5616L103.946 18.2054L109.001 25.3067H116L107.147 14.0309L115.701 3.18076H109.001L104.006 10.0986L99.0109 3.18076H92.1611Z" fill="#06286E"/>
</svg>
